<?xml version="1.0" encoding="UTF-8" standalone="no"?>
<!-- Created with Inkscape (http://www.inkscape.org/) -->

<svg
   xmlns:dc="http://purl.org/dc/elements/1.1/"
   xmlns:cc="http://creativecommons.org/ns#"
   xmlns:rdf="http://www.w3.org/1999/02/22-rdf-syntax-ns#"
   xmlns:svg="http://www.w3.org/2000/svg"
   xmlns="http://www.w3.org/2000/svg"
   xmlns:sodipodi="http://sodipodi.sourceforge.net/DTD/sodipodi-0.dtd"
   xmlns:inkscape="http://www.inkscape.org/namespaces/inkscape"
   version="1.1"
   id="svg2"
   width="1015.5824"
   height="252.61147"
   viewBox="0 0 1015.5824 252.61147"
   sodipodi:docname="winoda-logo-white-back.svg"
   inkscape:version="0.92.4 (5da689c313, 2019-01-14)">
  <metadata
     id="metadata20">
    <rdf:RDF>
      <cc:Work
         rdf:about="">
        <dc:format>image/svg+xml</dc:format>
        <dc:type
           rdf:resource="http://purl.org/dc/dcmitype/StillImage" />
        <dc:title></dc:title>
      </cc:Work>
    </rdf:RDF>
  </metadata>
  <defs
     id="defs6">
    <clipPath
       clipPathUnits="userSpaceOnUse"
       id="clipPath18">
      <path
         d="m 2741.67,1855.59 v 1997.2 H 338.738 V 1855.59 Z M 617.996,3100.6 H 504.66 v 181.33 h 113.336 z m 0,-272.01 H 504.66 v 90.67 h 113.336 z m 226.672,453.34 H 731.332 v 90.67 h 113.336 z m 0,-272 H 731.332 v 181.34 h 113.336 z m 0,-272.01 H 731.332 v 181.34 h 113.336 z m 226.672,816.02 H 958.004 v 181.34 h 113.336 z m 0,-181.34 H 958.004 v 90.67 h 113.336 z m 0,-272 H 958.004 v 181.33 h 113.336 z m 0,-272.01 H 958.004 v 181.34 h 113.336 z m 226.67,661 h -113.34 v 181.34 h 113.34 z m 0,-298.32 h -113.34 v 181.33 h 113.34 z m 924.11,-669.63 c -24.88,-64.56 -60.22,-107.23 -77.18,-125.99 -14.27,-15.78 -52.96,-56.05 -115.77,-88.53 -25.22,-13.04 -71.99,-36.65 -138.47,-43.12 -74.08,-7.22 -131.32,10.89 -154.35,19.29 -60.94,22.23 -99,55.55 -106.69,62.42 -60.48,54.06 -82.4,116.84 -90.8,141.88 -9.84,29.33 -30.2,92.7 -12.48,171.38 16.25,72.2 55.52,117.05 63.55,125.98 14.86,16.51 50.38,51.83 107.83,72.64 19.86,7.19 60.32,21.32 113.5,14.75 48.55,-5.99 83.24,-26.22 99.87,-37.45 48.58,-32.8 70.47,-74.59 74.91,-83.99 35.69,-75.54 21.57,-128.25 21.57,-128.25 l -63.56,9.08 c 0,0 7.08,53.04 -19.3,101.01 -20.26,36.85 -55.31,55.43 -70.37,62.42 -41.19,19.15 -78.21,15.44 -94.2,13.62 -59.14,-6.71 -97.73,-39.57 -110.09,-51.07 -47.7,-44.37 -58.13,-99.24 -62.43,-123.71 -17.03,-97.17 31.07,-172.86 43.13,-190.68 51.91,-76.66 127.29,-101.91 152.09,-108.96 114.59,-32.57 209.39,22.08 236.08,37.46 20.02,11.54 95.09,57.61 137.33,150.95 24.1,53.27 27.43,99.65 29.51,132.79 5.36,85.57 -15.6,150.57 -23.84,173.65 -8.41,23.59 -32.91,85.67 -89.66,147.55 -66.96,73.02 -140.35,103.82 -165.71,113.5 -81.19,31 -149.75,28.75 -185,27.24 -22.64,-0.98 -102.67,-5.97 -195.21,-48.81 -28.27,-13.08 -88.67,-44.03 -149.82,-103.28 -23.03,-22.32 -74.13,-72.69 -108.96,-148.68 -22.64,-49.4 -29.63,-74.92 -37.45,-104.42 -6.17,-23.26 -15.49,-75.96 -15.49,-75.96 l -62.85,0.11 c 0,0 14.55,122.98 53.37,196.16 27.42,51.7 57.65,107.64 116.9,167.98 51.08,52.01 100.78,83.93 130.52,101.01 64.74,37.17 122.49,54.34 155.49,62.42 68.03,16.67 122.63,17.28 144.15,17.03 30.77,-0.36 84.69,-1.41 150.95,-22.7 13.46,-4.33 59.27,-19.73 112.36,-53.35 71.5,-45.27 113.55,-96.59 125.98,-112.36 12.26,-15.54 52.98,-69.17 80.59,-150.95 25.25,-74.81 27.04,-136.2 27.24,-155.49 0.33,-32.6 0.38,-92.91 -27.24,-164.57 z"
         id="path16"
         inkscape:connector-curvature="0" />
    </clipPath>
  </defs>
  <sodipodi:namedview
     id="namedview4"
     pagecolor="#ffffff"
     bordercolor="#000000"
     borderopacity="0.25"
     inkscape:showpageshadow="2"
     inkscape:pageopacity="0.0"
     inkscape:pagecheckerboard="0"
     inkscape:deskcolor="#d1d1d1"
     showgrid="false"
     fit-margin-top="0"
     fit-margin-left="0"
     fit-margin-right="0"
     fit-margin-bottom="0"
     inkscape:zoom="0.29733907"
     inkscape:cx="-62.767441"
     inkscape:cy="142.60056"
     inkscape:window-width="1920"
     inkscape:window-height="1017"
     inkscape:window-x="-8"
     inkscape:window-y="1061"
     inkscape:window-maximized="1"
     inkscape:current-layer="g8" />
  <g
     id="g8"
     inkscape:groupmode="layer"
     inkscape:label="ink_ext_XXXXXX"
     transform="matrix(1.3333333,0,0,-1.3333333,-52.289599,506.86424)">
    <g
       id="g10"
       transform="scale(0.1)">
      <g
         id="g12">
        <g
           id="g14"
           clip-path="url(#clipPath18)">
          <path
             d="m 1940.84,2646.32 c 9.91,95.68 -57.73,181.81 -151.08,192.4 -116.69,13.24 -221.32,-72.99 -233.71,-192.58 -15.49,-149.49 90.2,-284.1 236.06,-300.63 182.32,-20.68 345.82,114.04 365.18,300.91 24.19,233.58 -140.95,443.89 -368.85,469.74 -284.88,32.31 -540.34,-178.2 -570.59,-470.18 -4.72,-45.62 -4.83,-90.68 -0.7,-134.67 28.93,-307.95 265.44,-563.96 577.02,-599.3 445.13,-50.48 844.3,278.44 891.55,734.66 59.08,570.27 -344.09,1083.72 -900.51,1146.82 C 1089.7,3872.37 466.02,3358.44 392.172,2645.59 l 825.678,0.39"
             style="fill:#99d420;fill-opacity:1;fill-rule:nonzero;stroke:none"
             id="path20"
             inkscape:connector-curvature="0" />
        </g>
      </g>
      <path
         d="m 504.66,2737.93 v -181.34 h 113.336 v 181.34 H 504.66"
         style="fill:#99d420;fill-opacity:1;fill-rule:nonzero;stroke:none"
         id="path22"
         inkscape:connector-curvature="0" />
      <path
         d="m 504.66,2465.92 v -181.34 h 113.336 v 181.34 H 504.66"
         style="fill:#99d420;fill-opacity:1;fill-rule:nonzero;stroke:none"
         id="path24"
         inkscape:connector-curvature="0" />
      <path
         d="m 731.332,2556.59 v -181.34 h 113.336 v 181.34 H 731.332"
         style="fill:#99d420;fill-opacity:1;fill-rule:nonzero;stroke:none"
         id="path26"
         inkscape:connector-curvature="0" />
      <path
         d="m 958.004,2465.92 v -90.67 h 113.336 v 90.67 H 958.004"
         style="fill:#99d420;fill-opacity:1;fill-rule:nonzero;stroke:none"
         id="path28"
         inkscape:connector-curvature="0" />
      <path
         d="m 958.004,2737.93 v -181.34 h 113.336 v 181.34 H 958.004"
         style="fill:#99d420;fill-opacity:1;fill-rule:nonzero;stroke:none"
         id="path30"
         inkscape:connector-curvature="0" />
      <path
         d="m 731.332,2284.58 v -90.67 h 113.336 v 90.67 H 731.332"
         style="fill:#99d420;fill-opacity:1;fill-rule:nonzero;stroke:none"
         id="path32"
         inkscape:connector-curvature="0" />
      <path
         d="m 3778.71,2467.05 317.8,1194.65 h -159.73 l -234.61,-928.44 h -3.32 l -206.32,928.44 h -158.07 l -216.3,-931.76 h -3.33 l -224.62,931.76 h -168.05 l 314.47,-1194.65 h 159.73 l 212.97,906.8 h 3.33 l 207.98,-906.8 z m 515.61,0 v 836.25 h -160.73 v -836.25 z m 1078.16,0 V 3661.7 h -151.41 v -905.14 h -3.33 L 4700.28,3661.7 H 4473.99 V 2467.05 h 151.41 v 1003.3 h 3.33 l 587.34,-1003.3 z m 489.5,-13.98 c 230.61,0 356.4,171.21 356.4,432.1 0,222.46 -101.33,432.11 -356.4,432.11 -253.9,0 -356.4,-209.65 -356.4,-432.11 0,-260.89 126.96,-432.1 356.4,-432.1 z m 0,130.45 c -128.12,0 -195.67,111.81 -195.67,301.65 0,191.01 68.72,303.99 195.67,303.99 126.95,0 196.84,-112.98 196.84,-303.99 0,-189.84 -68.72,-301.65 -196.84,-301.65 z m 779.01,-116.47 c 399.32,0 607.31,206.31 607.31,610.63 0,381.03 -176.37,584.02 -575.7,584.02 H 6351.47 V 2467.05 Z m -129.78,143.09 v 908.47 h 176.36 c 272.88,0 404.32,-143.1 404.32,-444.25 0,-312.81 -138.1,-464.22 -435.93,-464.22 z m 1485.46,-143.09 -252.74,836.25 h -217.79 l -251.58,-836.25 h 161.9 l 60.56,220.12 h 270.21 l 60.56,-220.12 z m -365.71,703.47 h 2.33 l 96.67,-349.41 h -195.67 l 96.67,349.41"
         style="fill:#4081cb;fill-opacity:1;fill-rule:nonzero;stroke:none"
         id="path34"
         inkscape:connector-curvature="0" />
      <path
         d="m 3357.15,2112.64 -135.32,157.37 118.13,91.52 h -84.86 l -142.53,-114.05 h -1.11 v 114.05 h -77.09 v -248.89 h 77.09 v 71.75 l 58.79,44.72 100.38,-116.47 z m 395.45,0 v 248.89 h -71.55 v -166.39 h -1.11 l -149.74,166.39 h -94.84 v -248.89 h 72.1 v 181.98 h 1.11 l 168.6,-181.98 z m 274.53,-4.16 c 109.82,0 169.72,50.96 169.72,128.6 0,66.21 -48.26,128.61 -169.72,128.61 -120.9,0 -169.71,-62.4 -169.71,-128.61 0,-77.64 60.45,-128.6 169.71,-128.6 z m 0,38.82 c -61,0 -93.17,33.28 -93.17,89.78 0,56.85 32.72,90.48 93.17,90.48 60.46,0 93.73,-33.63 93.73,-90.48 0,-56.5 -32.72,-89.78 -93.73,-89.78 z m 606.2,-34.66 105.37,248.89 h -77.64 l -64.89,-174.36 h -1.11 l -55.47,174.36 h -76.53 l -60.46,-176.1 h -1.11 l -60.45,176.1 h -81.53 l 102.61,-248.89 h 77.09 l 59.9,168.47 h 1.11 l 58.23,-168.47 z m 431.48,0 v 40.21 h -168.05 v 208.68 h -76.53 v -248.89 z m 353.85,0 v 40.21 h -186.91 v 68.63 h 129.23 v 38.83 h -129.23 v 61.01 h 180.81 v 40.21 h -257.34 v -248.89 z m 211.3,0 c 130.89,0 201.88,44.37 201.88,127.91 0,80.07 -63.78,120.98 -194.11,120.98 h -122.02 v -248.89 z m -37.71,41.6 v 165.69 h 50.47 c 76.54,0 112.59,-27.04 112.59,-80.42 0,-55.81 -37.16,-85.27 -120.36,-85.27 z m 639.47,-41.6 v 123.75 H 6085.3 v -34.66 h 79.31 c 0.56,-2.78 0.56,-4.86 0.56,-6.94 0,-29.81 -31.06,-47.83 -79.87,-47.83 -66,0 -93.73,32.58 -93.73,90.82 0,57.19 34.39,88.39 89.3,88.39 37.71,0 63.78,-10.75 77.64,-42.64 l 69.33,8.32 c -19.41,51.3 -68.22,73.84 -146.97,73.84 -104.27,0 -165.84,-46.45 -165.84,-127.57 0,-80.07 52.69,-129.64 154.74,-129.64 41.6,0 74.32,7.97 100.39,27.04 h 1.11 v -22.88 z m 378.25,0 v 40.21 h -186.91 v 68.63 h 129.23 v 38.83 h -129.23 v 61.01 h 180.81 v 40.21 h -257.35 v -248.89 z m 610.96,0 v 40.21 h -168.05 v 208.68 h -76.53 v -248.89 z m 398.22,0 -120.35,248.89 h -103.72 l -119.79,-248.89 h 77.09 l 28.84,65.51 h 128.67 l 28.84,-65.51 z M 7445,2322.01 h 1.11 l 46.03,-103.99 h -93.17 z m 399.88,-209.37 c 86.52,0 164.16,13.87 164.16,70.71 0,30.16 -22.74,50.27 -74.31,60.67 v 0.69 c 39.93,9.7 59.89,29.12 59.89,53.73 0,41.94 -47.69,63.09 -158.62,63.09 h -126.45 v -248.89 z m -60.46,146.28 v 63.44 h 50.47 c 39.94,0 83.2,-2.78 83.2,-29.81 0,-29.12 -44.37,-33.63 -77.65,-33.63 z m 0,-107.11 v 71.75 h 66.56 c 49.36,0 81.53,-10.05 81.53,-36.39 0,-23.57 -23.85,-35.36 -87.08,-35.36 h -61.01"
         style="fill:#231f20;fill-opacity:1;fill-rule:nonzero;stroke:none"
         id="path36"
         inkscape:connector-curvature="0" />
    </g>
  </g>
</svg>
